<svg xmlns="http://www.w3.org/2000/svg" fill="none" viewBox="0 0 128 128">
    <path d="M50.4 78.5a75.1 75.1 0 0 0-28.5 6.9l24.2-65.7c.7-2 1.9-3.2 3.4-3.2h29.2c1.5 0 2.7 1.2 3.4 3.2l24.2 65.7s-11.6-7-28.5-6.9c-5.8.7-11.2 1.1-15.4 1.1-4.1 0-9.6-.4-15.4-1.1zM107 41.8c2.3-6.9 1.7-12.5-1.8-17.7h-5.8c4.3 4.5 4.6 8.5 3.6 13.7l-4.4 26.7c-.5 3-1.1 6.3-2.7 8.8-1.6 2.5-3.9 4.5-6.9 5.7-2.5 1-5.7 1.5-8.7 1.5-2.6 0-5.3-.2-7.9-.7-2.6-.5-5-1.3-7.1-2.4-2.1-1.1-3.7-2.3-4.8-3.8-.6-.8-1.1-1.6-1.5-2.6l10.2-4c.7 1.3 1.7 2.3 3 3 1.3.7 2.7 1.2 4.1 1.5 1.4.3 2.7.4 3.8.4 1.3 0 2.5-.1 3.5-.4 1-.3 1.9-.8 2.6-1.5.7-.7 1.3-1.6 1.7-2.8.4-1.2.7-2.7.9-4.6l4.5-26.7z" fill="#000"/>
    <style>
        svg {
            margin: auto;
        }
    </style>
</svg>
